<?xml version="1.0" standalone="no"?>
<svg xmlns:xlink="http://www.w3.org/1999/xlink" id="wave" style="transform:rotate(0deg); transition: 0.3s" viewBox="0 0 1440 360" version="1.1" xmlns="http://www.w3.org/2000/svg"><defs><linearGradient id="sw-gradient-0" x1="0" x2="0" y1="1" y2="0"><stop stop-color="rgba(255, 255, 255, 1)" offset="0%"/><stop stop-color="rgba(254, 126, 56, 1)" offset="100%"/></linearGradient></defs><path style="transform:translate(0, 0px); opacity:1" fill="url(#sw-gradient-0)" d="M0,36L48,42C96,48,192,60,288,84C384,108,480,144,576,138C672,132,768,84,864,108C960,132,1056,228,1152,234C1248,240,1344,156,1440,144C1536,132,1632,192,1728,192C1824,192,1920,132,2016,138C2112,144,2208,216,2304,222C2400,228,2496,168,2592,126C2688,84,2784,60,2880,60C2976,60,3072,84,3168,90C3264,96,3360,84,3456,66C3552,48,3648,24,3744,48C3840,72,3936,144,4032,162C4128,180,4224,144,4320,114C4416,84,4512,60,4608,96C4704,132,4800,228,4896,222C4992,216,5088,108,5184,102C5280,96,5376,192,5472,234C5568,276,5664,264,5760,252C5856,240,5952,228,6048,198C6144,168,6240,120,6336,114C6432,108,6528,144,6624,162C6720,180,6816,180,6864,180L6912,180L6912,360L6864,360C6816,360,6720,360,6624,360C6528,360,6432,360,6336,360C6240,360,6144,360,6048,360C5952,360,5856,360,5760,360C5664,360,5568,360,5472,360C5376,360,5280,360,5184,360C5088,360,4992,360,4896,360C4800,360,4704,360,4608,360C4512,360,4416,360,4320,360C4224,360,4128,360,4032,360C3936,360,3840,360,3744,360C3648,360,3552,360,3456,360C3360,360,3264,360,3168,360C3072,360,2976,360,2880,360C2784,360,2688,360,2592,360C2496,360,2400,360,2304,360C2208,360,2112,360,2016,360C1920,360,1824,360,1728,360C1632,360,1536,360,1440,360C1344,360,1248,360,1152,360C1056,360,960,360,864,360C768,360,672,360,576,360C480,360,384,360,288,360C192,360,96,360,48,360L0,360Z"/><defs><linearGradient id="sw-gradient-1" x1="0" x2="0" y1="1" y2="0"><stop stop-color="rgba(255, 163.479, 113.429, 1)" offset="0%"/><stop stop-color="rgba(254, 126, 56, 1)" offset="100%"/></linearGradient></defs><path style="transform:translate(0, 50px); opacity:0.9" fill="url(#sw-gradient-1)" d="M0,216L48,222C96,228,192,240,288,204C384,168,480,84,576,78C672,72,768,144,864,192C960,240,1056,264,1152,270C1248,276,1344,264,1440,258C1536,252,1632,252,1728,240C1824,228,1920,204,2016,198C2112,192,2208,204,2304,198C2400,192,2496,168,2592,162C2688,156,2784,168,2880,168C2976,168,3072,156,3168,156C3264,156,3360,168,3456,174C3552,180,3648,180,3744,156C3840,132,3936,84,4032,78C4128,72,4224,108,4320,114C4416,120,4512,96,4608,90C4704,84,4800,96,4896,84C4992,72,5088,36,5184,72C5280,108,5376,216,5472,222C5568,228,5664,132,5760,108C5856,84,5952,132,6048,156C6144,180,6240,180,6336,180C6432,180,6528,180,6624,180C6720,180,6816,180,6864,180L6912,180L6912,360L6864,360C6816,360,6720,360,6624,360C6528,360,6432,360,6336,360C6240,360,6144,360,6048,360C5952,360,5856,360,5760,360C5664,360,5568,360,5472,360C5376,360,5280,360,5184,360C5088,360,4992,360,4896,360C4800,360,4704,360,4608,360C4512,360,4416,360,4320,360C4224,360,4128,360,4032,360C3936,360,3840,360,3744,360C3648,360,3552,360,3456,360C3360,360,3264,360,3168,360C3072,360,2976,360,2880,360C2784,360,2688,360,2592,360C2496,360,2400,360,2304,360C2208,360,2112,360,2016,360C1920,360,1824,360,1728,360C1632,360,1536,360,1440,360C1344,360,1248,360,1152,360C1056,360,960,360,864,360C768,360,672,360,576,360C480,360,384,360,288,360C192,360,96,360,48,360L0,360Z"/><defs><linearGradient id="sw-gradient-2" x1="0" x2="0" y1="1" y2="0"><stop stop-color="rgba(254, 126, 56, 1)" offset="0%"/><stop stop-color="rgba(254, 126, 56, 1)" offset="100%"/></linearGradient></defs><path style="transform:translate(0, 100px); opacity:0.8" fill="url(#sw-gradient-2)" d="M0,108L48,138C96,168,192,228,288,246C384,264,480,240,576,246C672,252,768,288,864,270C960,252,1056,180,1152,162C1248,144,1344,180,1440,192C1536,204,1632,192,1728,198C1824,204,1920,228,2016,252C2112,276,2208,300,2304,276C2400,252,2496,180,2592,132C2688,84,2784,60,2880,72C2976,84,3072,132,3168,174C3264,216,3360,252,3456,234C3552,216,3648,144,3744,144C3840,144,3936,216,4032,252C4128,288,4224,288,4320,240C4416,192,4512,96,4608,66C4704,36,4800,72,4896,102C4992,132,5088,156,5184,174C5280,192,5376,204,5472,228C5568,252,5664,288,5760,288C5856,288,5952,252,6048,222C6144,192,6240,168,6336,174C6432,180,6528,216,6624,234C6720,252,6816,252,6864,252L6912,252L6912,360L6864,360C6816,360,6720,360,6624,360C6528,360,6432,360,6336,360C6240,360,6144,360,6048,360C5952,360,5856,360,5760,360C5664,360,5568,360,5472,360C5376,360,5280,360,5184,360C5088,360,4992,360,4896,360C4800,360,4704,360,4608,360C4512,360,4416,360,4320,360C4224,360,4128,360,4032,360C3936,360,3840,360,3744,360C3648,360,3552,360,3456,360C3360,360,3264,360,3168,360C3072,360,2976,360,2880,360C2784,360,2688,360,2592,360C2496,360,2400,360,2304,360C2208,360,2112,360,2016,360C1920,360,1824,360,1728,360C1632,360,1536,360,1440,360C1344,360,1248,360,1152,360C1056,360,960,360,864,360C768,360,672,360,576,360C480,360,384,360,288,360C192,360,96,360,48,360L0,360Z"/></svg>