<?xml version="1.0" standalone="no"?>
<svg xmlns:xlink="http://www.w3.org/1999/xlink" id="wave" style="transform:rotate(0deg); transition: 0.3s" viewBox="0 0 1440 360" version="1.1" xmlns="http://www.w3.org/2000/svg"><defs><linearGradient id="sw-gradient-0" x1="0" x2="0" y1="1" y2="0"><stop stop-color="rgba(255, 255, 255, 1)" offset="0%"/><stop stop-color="rgba(254, 126, 56, 1)" offset="100%"/></linearGradient></defs><path style="transform:translate(0, 0px); opacity:1" fill="url(#sw-gradient-0)" d="M0,36L24,42C48,48,96,60,144,84C192,108,240,144,288,138C336,132,384,84,432,108C480,132,528,228,576,234C624,240,672,156,720,144C768,132,816,192,864,192C912,192,960,132,1008,138C1056,144,1104,216,1152,222C1200,228,1248,168,1296,126C1344,84,1392,60,1440,60C1488,60,1536,84,1584,90C1632,96,1680,84,1728,66C1776,48,1824,24,1872,48C1920,72,1968,144,2016,162C2064,180,2112,144,2160,114C2208,84,2256,60,2304,96C2352,132,2400,228,2448,222C2496,216,2544,108,2592,102C2640,96,2688,192,2736,234C2784,276,2832,264,2880,252C2928,240,2976,228,3024,198C3072,168,3120,120,3168,114C3216,108,3264,144,3312,162C3360,180,3408,180,3432,180L3456,180L3456,360L3432,360C3408,360,3360,360,3312,360C3264,360,3216,360,3168,360C3120,360,3072,360,3024,360C2976,360,2928,360,2880,360C2832,360,2784,360,2736,360C2688,360,2640,360,2592,360C2544,360,2496,360,2448,360C2400,360,2352,360,2304,360C2256,360,2208,360,2160,360C2112,360,2064,360,2016,360C1968,360,1920,360,1872,360C1824,360,1776,360,1728,360C1680,360,1632,360,1584,360C1536,360,1488,360,1440,360C1392,360,1344,360,1296,360C1248,360,1200,360,1152,360C1104,360,1056,360,1008,360C960,360,912,360,864,360C816,360,768,360,720,360C672,360,624,360,576,360C528,360,480,360,432,360C384,360,336,360,288,360C240,360,192,360,144,360C96,360,48,360,24,360L0,360Z"/><defs><linearGradient id="sw-gradient-1" x1="0" x2="0" y1="1" y2="0"><stop stop-color="rgba(255, 163.479, 113.429, 1)" offset="0%"/><stop stop-color="rgba(254, 126, 56, 1)" offset="100%"/></linearGradient></defs><path style="transform:translate(0, 50px); opacity:0.9" fill="url(#sw-gradient-1)" d="M0,216L24,222C48,228,96,240,144,204C192,168,240,84,288,78C336,72,384,144,432,192C480,240,528,264,576,270C624,276,672,264,720,258C768,252,816,252,864,240C912,228,960,204,1008,198C1056,192,1104,204,1152,198C1200,192,1248,168,1296,162C1344,156,1392,168,1440,168C1488,168,1536,156,1584,156C1632,156,1680,168,1728,174C1776,180,1824,180,1872,156C1920,132,1968,84,2016,78C2064,72,2112,108,2160,114C2208,120,2256,96,2304,90C2352,84,2400,96,2448,84C2496,72,2544,36,2592,72C2640,108,2688,216,2736,222C2784,228,2832,132,2880,108C2928,84,2976,132,3024,156C3072,180,3120,180,3168,180C3216,180,3264,180,3312,180C3360,180,3408,180,3432,180L3456,180L3456,360L3432,360C3408,360,3360,360,3312,360C3264,360,3216,360,3168,360C3120,360,3072,360,3024,360C2976,360,2928,360,2880,360C2832,360,2784,360,2736,360C2688,360,2640,360,2592,360C2544,360,2496,360,2448,360C2400,360,2352,360,2304,360C2256,360,2208,360,2160,360C2112,360,2064,360,2016,360C1968,360,1920,360,1872,360C1824,360,1776,360,1728,360C1680,360,1632,360,1584,360C1536,360,1488,360,1440,360C1392,360,1344,360,1296,360C1248,360,1200,360,1152,360C1104,360,1056,360,1008,360C960,360,912,360,864,360C816,360,768,360,720,360C672,360,624,360,576,360C528,360,480,360,432,360C384,360,336,360,288,360C240,360,192,360,144,360C96,360,48,360,24,360L0,360Z"/><defs><linearGradient id="sw-gradient-2" x1="0" x2="0" y1="1" y2="0"><stop stop-color="rgba(254, 126, 56, 1)" offset="0%"/><stop stop-color="rgba(254, 126, 56, 1)" offset="100%"/></linearGradient></defs><path style="transform:translate(0, 100px); opacity:0.8" fill="url(#sw-gradient-2)" d="M0,108L24,138C48,168,96,228,144,246C192,264,240,240,288,246C336,252,384,288,432,270C480,252,528,180,576,162C624,144,672,180,720,192C768,204,816,192,864,198C912,204,960,228,1008,252C1056,276,1104,300,1152,276C1200,252,1248,180,1296,132C1344,84,1392,60,1440,72C1488,84,1536,132,1584,174C1632,216,1680,252,1728,234C1776,216,1824,144,1872,144C1920,144,1968,216,2016,252C2064,288,2112,288,2160,240C2208,192,2256,96,2304,66C2352,36,2400,72,2448,102C2496,132,2544,156,2592,174C2640,192,2688,204,2736,228C2784,252,2832,288,2880,288C2928,288,2976,252,3024,222C3072,192,3120,168,3168,174C3216,180,3264,216,3312,234C3360,252,3408,252,3432,252L3456,252L3456,360L3432,360C3408,360,3360,360,3312,360C3264,360,3216,360,3168,360C3120,360,3072,360,3024,360C2976,360,2928,360,2880,360C2832,360,2784,360,2736,360C2688,360,2640,360,2592,360C2544,360,2496,360,2448,360C2400,360,2352,360,2304,360C2256,360,2208,360,2160,360C2112,360,2064,360,2016,360C1968,360,1920,360,1872,360C1824,360,1776,360,1728,360C1680,360,1632,360,1584,360C1536,360,1488,360,1440,360C1392,360,1344,360,1296,360C1248,360,1200,360,1152,360C1104,360,1056,360,1008,360C960,360,912,360,864,360C816,360,768,360,720,360C672,360,624,360,576,360C528,360,480,360,432,360C384,360,336,360,288,360C240,360,192,360,144,360C96,360,48,360,24,360L0,360Z"/></svg>